<mxfile host="app.diagrams.net" modified="2023-07-10T07:30:53.419Z" agent="Mozilla/5.0 (Macintosh; Intel Mac OS X 10_15_7) AppleWebKit/537.36 (KHTML, like Gecko) Chrome/114.0.0.0 Safari/537.36" etag="GIaWCm-bDwoIj5A7DSMe" version="21.6.1" type="device">
  <diagram name="Page-1" id="3lcCKxx57ye3NdqWOnXo">
    <mxGraphModel dx="3265" dy="4290" grid="1" gridSize="10" guides="1" tooltips="1" connect="1" arrows="1" fold="1" page="1" pageScale="1" pageWidth="850" pageHeight="1100" math="0" shadow="0">
      <root>
        <mxCell id="0" />
        <mxCell id="1" parent="0" />
        <mxCell id="4sycOJ-QH5n3V28lwhW--4" value="" style="rounded=1;whiteSpace=wrap;html=1;fillColor=none;strokeWidth=3;dashed=1;" vertex="1" parent="1">
          <mxGeometry x="170" y="-445" width="340" height="390" as="geometry" />
        </mxCell>
        <mxCell id="4sycOJ-QH5n3V28lwhW--10" value="" style="ellipse;whiteSpace=wrap;html=1;aspect=fixed;fillColor=none;strokeWidth=6;strokeColor=#00aa00;" vertex="1" parent="1">
          <mxGeometry x="700" y="-738.75" width="157.5" height="157.5" as="geometry" />
        </mxCell>
        <mxCell id="x0Zm9bs1zl5WbmLCKtsI-49" value="" style="rounded=1;whiteSpace=wrap;html=1;fillColor=none;strokeWidth=3;dashed=1;" parent="1" vertex="1">
          <mxGeometry x="1041.25" y="-560" width="1690" height="1020" as="geometry" />
        </mxCell>
        <mxCell id="x0Zm9bs1zl5WbmLCKtsI-9" style="edgeStyle=orthogonalEdgeStyle;rounded=0;orthogonalLoop=1;jettySize=auto;html=1;exitX=0.5;exitY=1;exitDx=0;exitDy=0;strokeWidth=3;startArrow=classic;startFill=1;endArrow=none;endFill=0;" parent="1" source="x0Zm9bs1zl5WbmLCKtsI-4" target="x0Zm9bs1zl5WbmLCKtsI-5" edge="1">
          <mxGeometry relative="1" as="geometry" />
        </mxCell>
        <mxCell id="x0Zm9bs1zl5WbmLCKtsI-4" value="&lt;font color=&quot;#ffffff&quot; style=&quot;font-size: 20px;&quot; face=&quot;Ubuntu&quot;&gt;&lt;b&gt;index.html&lt;/b&gt;&lt;/font&gt;" style="ellipse;whiteSpace=wrap;html=1;aspect=fixed;strokeColor=none;fillColor=#F16C9D;strokeWidth=3;" parent="1" vertex="1">
          <mxGeometry x="720" y="-1160" width="120" height="120" as="geometry" />
        </mxCell>
        <mxCell id="x0Zm9bs1zl5WbmLCKtsI-5" value="&lt;font color=&quot;#ffffff&quot; style=&quot;font-size: 20px;&quot; face=&quot;Ubuntu&quot;&gt;&lt;b&gt;index.tsx&lt;/b&gt;&lt;/font&gt;" style="ellipse;whiteSpace=wrap;html=1;aspect=fixed;strokeColor=none;fillColor=#f16c9d;" parent="1" vertex="1">
          <mxGeometry x="720" y="-940" width="120" height="120" as="geometry" />
        </mxCell>
        <mxCell id="x0Zm9bs1zl5WbmLCKtsI-8" value="&lt;font style=&quot;font-size: 20px;&quot; face=&quot;Ubuntu&quot;&gt;&lt;b&gt;setupSentry()&lt;/b&gt;&lt;/font&gt;" style="text;html=1;strokeColor=none;fillColor=none;align=center;verticalAlign=middle;whiteSpace=wrap;rounded=0;" parent="1" vertex="1">
          <mxGeometry x="520" y="-990" width="160" height="30" as="geometry" />
        </mxCell>
        <mxCell id="x0Zm9bs1zl5WbmLCKtsI-26" style="edgeStyle=orthogonalEdgeStyle;rounded=0;orthogonalLoop=1;jettySize=auto;html=1;entryX=0.5;entryY=0;entryDx=0;entryDy=0;strokeWidth=3;" parent="1" source="x0Zm9bs1zl5WbmLCKtsI-5" target="x0Zm9bs1zl5WbmLCKtsI-12" edge="1">
          <mxGeometry relative="1" as="geometry">
            <mxPoint x="817" y="-820" as="sourcePoint" />
          </mxGeometry>
        </mxCell>
        <mxCell id="x0Zm9bs1zl5WbmLCKtsI-38" style="rounded=0;orthogonalLoop=1;jettySize=auto;html=1;exitX=1;exitY=0.5;exitDx=0;exitDy=0;strokeWidth=3;edgeStyle=orthogonalEdgeStyle;" parent="1" source="x0Zm9bs1zl5WbmLCKtsI-12" target="x0Zm9bs1zl5WbmLCKtsI-41" edge="1">
          <mxGeometry relative="1" as="geometry">
            <mxPoint x="1157" y="-410" as="targetPoint" />
          </mxGeometry>
        </mxCell>
        <mxCell id="4sycOJ-QH5n3V28lwhW--26" style="edgeStyle=orthogonalEdgeStyle;rounded=0;orthogonalLoop=1;jettySize=auto;html=1;exitX=0;exitY=0.5;exitDx=0;exitDy=0;strokeWidth=3;" edge="1" parent="1" source="x0Zm9bs1zl5WbmLCKtsI-12" target="x0Zm9bs1zl5WbmLCKtsI-40">
          <mxGeometry relative="1" as="geometry" />
        </mxCell>
        <mxCell id="x0Zm9bs1zl5WbmLCKtsI-12" value="&lt;font color=&quot;#ffffff&quot; style=&quot;font-size: 20px;&quot; face=&quot;Ubuntu&quot;&gt;&lt;b&gt;App.tsx&lt;/b&gt;&lt;/font&gt;" style="ellipse;whiteSpace=wrap;html=1;aspect=fixed;strokeColor=none;fillColor=#f16c9d;" parent="1" vertex="1">
          <mxGeometry x="720" y="-720" width="120" height="120" as="geometry" />
        </mxCell>
        <mxCell id="x0Zm9bs1zl5WbmLCKtsI-15" value="&lt;font face=&quot;Ubuntu&quot;&gt;&lt;span style=&quot;font-size: 20px;&quot;&gt;&lt;b&gt;wraps&lt;/b&gt;&lt;/span&gt;&lt;/font&gt;" style="text;html=1;strokeColor=none;fillColor=none;align=center;verticalAlign=middle;whiteSpace=wrap;rounded=0;" parent="1" vertex="1">
          <mxGeometry x="637" y="-790" width="180" height="30" as="geometry" />
        </mxCell>
        <mxCell id="x0Zm9bs1zl5WbmLCKtsI-18" value="&lt;font size=&quot;1&quot; color=&quot;#7248b6&quot; style=&quot;&quot; face=&quot;Ubuntu&quot;&gt;&lt;b style=&quot;font-size: 25px;&quot;&gt;Redux&lt;br&gt;Store&lt;/b&gt;&lt;/font&gt;" style="shape=cylinder3;whiteSpace=wrap;html=1;boundedLbl=1;backgroundOutline=1;size=15;fillColor=none;strokeColor=#7248B6;strokeWidth=6;" parent="1" vertex="1">
          <mxGeometry x="698.75" y="-310" width="160" height="120" as="geometry" />
        </mxCell>
        <mxCell id="x0Zm9bs1zl5WbmLCKtsI-20" value="&lt;font face=&quot;Ubuntu&quot;&gt;&lt;span style=&quot;font-size: 20px;&quot;&gt;&lt;b&gt;connect to via Redux Provider&lt;/b&gt;&lt;/span&gt;&lt;/font&gt;" style="text;html=1;strokeColor=none;fillColor=none;align=center;verticalAlign=middle;whiteSpace=wrap;rounded=0;" parent="1" vertex="1">
          <mxGeometry x="1007" y="-850" width="180" height="30" as="geometry" />
        </mxCell>
        <mxCell id="4sycOJ-QH5n3V28lwhW--23" style="edgeStyle=orthogonalEdgeStyle;rounded=0;orthogonalLoop=1;jettySize=auto;html=1;exitX=1;exitY=0.5;exitDx=0;exitDy=0;strokeWidth=3;" edge="1" parent="1" source="x0Zm9bs1zl5WbmLCKtsI-40" target="x0Zm9bs1zl5WbmLCKtsI-18">
          <mxGeometry relative="1" as="geometry" />
        </mxCell>
        <mxCell id="4sycOJ-QH5n3V28lwhW--25" style="edgeStyle=orthogonalEdgeStyle;rounded=0;orthogonalLoop=1;jettySize=auto;html=1;exitX=0.5;exitY=1;exitDx=0;exitDy=0;entryX=0.5;entryY=0;entryDx=0;entryDy=0;strokeWidth=3;" edge="1" parent="1" source="x0Zm9bs1zl5WbmLCKtsI-40" target="4sycOJ-QH5n3V28lwhW--24">
          <mxGeometry relative="1" as="geometry" />
        </mxCell>
        <mxCell id="x0Zm9bs1zl5WbmLCKtsI-40" value="&lt;font color=&quot;#ffffff&quot; style=&quot;font-size: 20px;&quot; face=&quot;Ubuntu&quot;&gt;&lt;b&gt;Editor.tsx&lt;/b&gt;&lt;/font&gt;" style="ellipse;whiteSpace=wrap;html=1;aspect=fixed;strokeColor=none;fillColor=#76B6FF;" parent="1" vertex="1">
          <mxGeometry x="280" y="-310" width="120" height="120" as="geometry" />
        </mxCell>
        <mxCell id="x0Zm9bs1zl5WbmLCKtsI-41" value="&lt;font color=&quot;#ffffff&quot; style=&quot;font-size: 20px;&quot; face=&quot;Ubuntu&quot;&gt;&lt;b&gt;GraphBrowser&lt;br&gt;&lt;/b&gt;&lt;b style=&quot;&quot;&gt;.tsx&lt;/b&gt;&lt;/font&gt;" style="ellipse;whiteSpace=wrap;html=1;aspect=fixed;strokeColor=none;fillColor=#0187F7;" parent="1" vertex="1">
          <mxGeometry x="1267.25" y="-530" width="150" height="150" as="geometry" />
        </mxCell>
        <mxCell id="x0Zm9bs1zl5WbmLCKtsI-60" style="edgeStyle=orthogonalEdgeStyle;rounded=0;orthogonalLoop=1;jettySize=auto;html=1;entryX=0.5;entryY=0;entryDx=0;entryDy=0;strokeWidth=3;" parent="1" source="x0Zm9bs1zl5WbmLCKtsI-41" target="x0Zm9bs1zl5WbmLCKtsI-43" edge="1">
          <mxGeometry relative="1" as="geometry">
            <mxPoint x="1318.25" y="120" as="sourcePoint" />
          </mxGeometry>
        </mxCell>
        <mxCell id="x0Zm9bs1zl5WbmLCKtsI-61" style="edgeStyle=orthogonalEdgeStyle;rounded=0;orthogonalLoop=1;jettySize=auto;html=1;exitX=0.5;exitY=1;exitDx=0;exitDy=0;entryX=0.5;entryY=0;entryDx=0;entryDy=0;strokeWidth=3;" parent="1" source="x0Zm9bs1zl5WbmLCKtsI-43" target="x0Zm9bs1zl5WbmLCKtsI-50" edge="1">
          <mxGeometry relative="1" as="geometry" />
        </mxCell>
        <mxCell id="4sycOJ-QH5n3V28lwhW--6" style="edgeStyle=orthogonalEdgeStyle;rounded=0;orthogonalLoop=1;jettySize=auto;html=1;strokeWidth=3;entryX=1;entryY=0.5;entryDx=0;entryDy=0;entryPerimeter=0;" edge="1" parent="1" source="x0Zm9bs1zl5WbmLCKtsI-43" target="x0Zm9bs1zl5WbmLCKtsI-18">
          <mxGeometry relative="1" as="geometry">
            <mxPoint x="1020" y="-250" as="targetPoint" />
          </mxGeometry>
        </mxCell>
        <mxCell id="x0Zm9bs1zl5WbmLCKtsI-43" value="&lt;font color=&quot;#ffffff&quot; style=&quot;font-size: 20px;&quot; face=&quot;Ubuntu&quot;&gt;&lt;b&gt;Visualization&lt;br&gt;View.tsx&lt;/b&gt;&lt;/font&gt;" style="ellipse;whiteSpace=wrap;html=1;aspect=fixed;strokeColor=none;fillColor=#0187F7;" parent="1" vertex="1">
          <mxGeometry x="1272.25" y="-320" width="140" height="140" as="geometry" />
        </mxCell>
        <mxCell id="x0Zm9bs1zl5WbmLCKtsI-62" style="rounded=0;orthogonalLoop=1;jettySize=auto;html=1;exitX=0;exitY=0.5;exitDx=0;exitDy=0;strokeWidth=3;edgeStyle=orthogonalEdgeStyle;" parent="1" source="x0Zm9bs1zl5WbmLCKtsI-50" target="x0Zm9bs1zl5WbmLCKtsI-51" edge="1">
          <mxGeometry relative="1" as="geometry" />
        </mxCell>
        <mxCell id="x0Zm9bs1zl5WbmLCKtsI-63" style="rounded=0;orthogonalLoop=1;jettySize=auto;html=1;exitX=1;exitY=0.5;exitDx=0;exitDy=0;entryX=0.5;entryY=0;entryDx=0;entryDy=0;strokeWidth=3;edgeStyle=orthogonalEdgeStyle;" parent="1" source="x0Zm9bs1zl5WbmLCKtsI-50" target="x0Zm9bs1zl5WbmLCKtsI-52" edge="1">
          <mxGeometry relative="1" as="geometry" />
        </mxCell>
        <mxCell id="x0Zm9bs1zl5WbmLCKtsI-50" value="&lt;font color=&quot;#ffffff&quot; style=&quot;font-size: 20px;&quot; face=&quot;Ubuntu&quot;&gt;&lt;b&gt;Graph&lt;br&gt;Visualizer.tsx&lt;/b&gt;&lt;/font&gt;" style="ellipse;whiteSpace=wrap;html=1;aspect=fixed;strokeColor=none;fillColor=#0187F7;" parent="1" vertex="1">
          <mxGeometry x="1272.25" y="-110" width="140" height="140" as="geometry" />
        </mxCell>
        <mxCell id="4sycOJ-QH5n3V28lwhW--22" style="edgeStyle=orthogonalEdgeStyle;rounded=0;orthogonalLoop=1;jettySize=auto;html=1;exitX=0.5;exitY=1;exitDx=0;exitDy=0;entryX=0;entryY=0.5;entryDx=0;entryDy=0;strokeWidth=3;" edge="1" parent="1" source="x0Zm9bs1zl5WbmLCKtsI-51" target="4sycOJ-QH5n3V28lwhW--20">
          <mxGeometry relative="1" as="geometry" />
        </mxCell>
        <mxCell id="x0Zm9bs1zl5WbmLCKtsI-51" value="&lt;font color=&quot;#ffffff&quot; style=&quot;font-size: 20px;&quot; face=&quot;Ubuntu&quot;&gt;&lt;b&gt;Graph.tsx&lt;/b&gt;&lt;/font&gt;" style="ellipse;whiteSpace=wrap;html=1;aspect=fixed;strokeColor=none;fillColor=#0187F7;" parent="1" vertex="1">
          <mxGeometry x="1161.25" y="80" width="120" height="120" as="geometry" />
        </mxCell>
        <mxCell id="x0Zm9bs1zl5WbmLCKtsI-52" value="&lt;font color=&quot;#ffffff&quot; style=&quot;font-size: 20px;&quot; face=&quot;Ubuntu&quot;&gt;&lt;b&gt;Node&lt;br&gt;Inspection&lt;br&gt;Panel.tsx&lt;/b&gt;&lt;/font&gt;" style="ellipse;whiteSpace=wrap;html=1;aspect=fixed;strokeColor=none;fillColor=#0187F7;" parent="1" vertex="1">
          <mxGeometry x="1412.25" y="80" width="120" height="120" as="geometry" />
        </mxCell>
        <mxCell id="x0Zm9bs1zl5WbmLCKtsI-53" value="&lt;font color=&quot;#ffffff&quot; style=&quot;font-size: 20px;&quot; face=&quot;Ubuntu&quot;&gt;&lt;b&gt;Relationship&lt;br&gt;.tsx&lt;/b&gt;&lt;/font&gt;" style="ellipse;whiteSpace=wrap;html=1;aspect=fixed;strokeColor=none;fillColor=#0187F7;" parent="1" vertex="1">
          <mxGeometry x="1876.25" y="237.5" width="125" height="125" as="geometry" />
        </mxCell>
        <mxCell id="x0Zm9bs1zl5WbmLCKtsI-54" value="&lt;font color=&quot;#ffffff&quot; style=&quot;font-size: 20px;&quot; face=&quot;Ubuntu&quot;&gt;&lt;b&gt;Graph.tsx&lt;/b&gt;&lt;/font&gt;" style="ellipse;whiteSpace=wrap;html=1;aspect=fixed;strokeColor=none;fillColor=#0187F7;" parent="1" vertex="1">
          <mxGeometry x="2001.25" y="120" width="120" height="120" as="geometry" />
        </mxCell>
        <mxCell id="x0Zm9bs1zl5WbmLCKtsI-55" value="&lt;font color=&quot;#ffffff&quot; style=&quot;font-size: 20px;&quot; face=&quot;Ubuntu&quot;&gt;&lt;b&gt;Node.tsx&lt;/b&gt;&lt;/font&gt;" style="ellipse;whiteSpace=wrap;html=1;aspect=fixed;strokeColor=none;fillColor=#0187F7;" parent="1" vertex="1">
          <mxGeometry x="2121.25" y="240" width="120" height="120" as="geometry" />
        </mxCell>
        <mxCell id="4sycOJ-QH5n3V28lwhW--5" value="" style="rounded=1;whiteSpace=wrap;html=1;fillColor=none;strokeWidth=3;dashed=1;" vertex="1" parent="1">
          <mxGeometry x="170" y="-15" width="340" height="390" as="geometry" />
        </mxCell>
        <mxCell id="4sycOJ-QH5n3V28lwhW--9" style="edgeStyle=orthogonalEdgeStyle;rounded=0;orthogonalLoop=1;jettySize=auto;html=1;exitX=0;exitY=0;exitDx=0;exitDy=0;entryX=0;entryY=0.5;entryDx=0;entryDy=0;strokeWidth=3;curved=1;" edge="1" parent="1" source="x0Zm9bs1zl5WbmLCKtsI-5" target="x0Zm9bs1zl5WbmLCKtsI-5">
          <mxGeometry relative="1" as="geometry">
            <Array as="points">
              <mxPoint x="738" y="-960" />
              <mxPoint x="660" y="-960" />
              <mxPoint x="660" y="-880" />
            </Array>
          </mxGeometry>
        </mxCell>
        <mxCell id="4sycOJ-QH5n3V28lwhW--11" value="ThemeProvider" style="shape=rect;rounded=1;whiteSpace=wrap;html=1;shadow=0;strokeColor=none;fillColor=#00AA00;arcSize=30;fontSize=14;spacingLeft=42;fontStyle=1;fontColor=#FFFFFF;align=left;opacity=50;" vertex="1" parent="1">
          <mxGeometry x="1172" y="-1130" width="220" height="40" as="geometry" />
        </mxCell>
        <mxCell id="4sycOJ-QH5n3V28lwhW--12" value="1" style="shape=ellipse;perimeter=ellipsePerimeter;fontSize=22;fontStyle=1;shadow=0;strokeColor=#ffffff;fillColor=#00AA00;strokeWidth=4;fontColor=#ffffff;align=center;whiteSpace=wrap;html=1;" vertex="1" parent="1">
          <mxGeometry x="1142" y="-1140" width="60" height="60" as="geometry" />
        </mxCell>
        <mxCell id="4sycOJ-QH5n3V28lwhW--15" value="Redux" style="shape=rect;rounded=1;whiteSpace=wrap;html=1;shadow=0;strokeColor=none;fillColor=#6666FF;arcSize=30;fontSize=14;spacingLeft=42;fontStyle=1;fontColor=#FFFFFF;align=left;opacity=50;" vertex="1" parent="1">
          <mxGeometry x="1172" y="-1060" width="220" height="40" as="geometry" />
        </mxCell>
        <mxCell id="4sycOJ-QH5n3V28lwhW--16" value="2" style="shape=ellipse;perimeter=ellipsePerimeter;fontSize=22;fontStyle=1;shadow=0;strokeColor=#ffffff;fillColor=#6666FF;strokeWidth=4;fontColor=#ffffff;align=center;whiteSpace=wrap;html=1;" vertex="1" parent="1">
          <mxGeometry x="1142" y="-1070" width="60" height="60" as="geometry" />
        </mxCell>
        <mxCell id="4sycOJ-QH5n3V28lwhW--17" value="" style="ellipse;whiteSpace=wrap;html=1;aspect=fixed;fillColor=none;strokeWidth=6;strokeColor=#7248B6;" vertex="1" parent="1">
          <mxGeometry x="700" y="-960" width="157.5" height="157.5" as="geometry" />
        </mxCell>
        <mxCell id="4sycOJ-QH5n3V28lwhW--20" value="" style="rounded=1;whiteSpace=wrap;html=1;fillColor=none;strokeWidth=3;dashed=1;" vertex="1" parent="1">
          <mxGeometry x="1861.25" y="100" width="400" height="280" as="geometry" />
        </mxCell>
        <mxCell id="4sycOJ-QH5n3V28lwhW--24" value="&lt;font face=&quot;Ubuntu&quot; color=&quot;#ffffff&quot;&gt;&lt;span style=&quot;font-size: 20px;&quot;&gt;&lt;b&gt;NLP.tsx&lt;/b&gt;&lt;/span&gt;&lt;/font&gt;" style="ellipse;whiteSpace=wrap;html=1;aspect=fixed;strokeColor=none;fillColor=#f16c9d;" vertex="1" parent="1">
          <mxGeometry x="280" y="130" width="120" height="120" as="geometry" />
        </mxCell>
      </root>
    </mxGraphModel>
  </diagram>
</mxfile>
